<svg width="30" height="30" viewBox="0 0 30 30" fill="none" xmlns="http://www.w3.org/2000/svg">
<path d="M14.9999 29.9875C23.2772 29.9875 29.9873 23.2774 29.9873 15C29.9873 6.72268 23.2772 0.0125732 14.9999 0.0125732C6.72256 0.0125732 0.0124512 6.72268 0.0124512 15C0.0124512 23.2774 6.72256 29.9875 14.9999 29.9875Z" fill="#382B73"/>
<path d="M15.0001 27.9664C22.1612 27.9664 27.9665 22.1611 27.9665 15C27.9665 7.83883 22.1612 2.03357 15.0001 2.03357C7.83895 2.03357 2.03369 7.83883 2.03369 15C2.03369 22.1611 7.83895 27.9664 15.0001 27.9664Z" fill="#473080"/>
<path d="M14.0562 10.8984C14.0484 10.8642 14.0391 10.8306 14.0279 10.7979C14.0234 10.7844 14.0185 10.7711 14.0134 10.7581C14.0037 10.7331 13.9932 10.7085 13.9816 10.6847C13.9746 10.67 13.9672 10.6555 13.9594 10.6414C13.9532 10.6301 13.9468 10.6189 13.9402 10.6078C13.9278 10.587 13.9147 10.5667 13.9009 10.5468C13.8765 10.5118 13.8499 10.4784 13.8214 10.4468C13.8204 10.4457 13.8194 10.4447 13.8184 10.4435C13.767 10.387 13.709 10.3365 13.6458 10.2929C13.6387 10.288 13.6316 10.2832 13.6244 10.2785C13.5639 10.2389 13.4988 10.2058 13.4302 10.1799C13.4245 10.1778 13.4189 10.1758 13.4132 10.1738C13.3713 10.1588 13.3281 10.1467 13.2838 10.1373C13.2804 10.1365 13.2772 10.1359 13.2738 10.1351C13.2099 10.1223 13.1437 10.1157 13.0761 10.1157H8.59855C8.25185 10.1157 7.9462 10.2913 7.7657 10.5585C7.76118 10.5652 7.75679 10.5719 7.7524 10.5787C7.71323 10.6398 7.68047 10.7055 7.65512 10.7747C7.65236 10.7823 7.64959 10.7901 7.64696 10.7979C7.61282 10.8989 7.59424 11.0073 7.59424 11.12V16.474C7.59424 17.0287 8.04386 17.4783 8.59855 17.4783H10.0181C10.2524 17.4783 10.4524 17.5965 10.5713 17.7708L10.3101 18.6797L10.0969 19.4213C10.0953 19.4268 10.0938 19.4325 10.0923 19.438C10.0918 19.4396 10.0914 19.4414 10.091 19.443C10.09 19.4469 10.0889 19.4509 10.0879 19.4548C10.0874 19.4568 10.0869 19.4587 10.0864 19.4607C10.0855 19.4645 10.0845 19.4683 10.0837 19.472C10.0834 19.4738 10.0829 19.4757 10.0825 19.4774C10.0815 19.4818 10.0805 19.4863 10.0796 19.4907C10.0793 19.4917 10.0791 19.4927 10.079 19.4939C10.0634 19.5678 10.0565 19.6414 10.0574 19.7135V20.5638C10.0502 21.1053 10.4873 21.5794 11.0622 21.5794H11.0624C11.416 21.5794 11.7435 21.3935 11.9248 21.0899L13.9387 17.7162C14.0316 17.5606 14.0806 17.3827 14.0806 17.2014V11.12C14.0806 11.0577 14.0749 10.9967 14.0641 10.9375C14.0617 10.9244 14.0591 10.9114 14.0562 10.8984Z" fill="#382B73"/>
<path d="M22.406 11.12C22.406 10.8426 22.2935 10.5915 22.1117 10.4098C22.1057 10.4037 22.0996 10.3977 22.0933 10.3918C22.0827 10.3818 22.072 10.3719 22.0609 10.3623C22.034 10.339 22.0061 10.3171 21.9769 10.2967C21.968 10.2904 21.959 10.2844 21.9498 10.2783C21.9449 10.2752 21.9402 10.2721 21.9353 10.2689C21.927 10.2637 21.9186 10.2586 21.91 10.2536C21.897 10.2458 21.8837 10.2384 21.8701 10.2314C21.8628 10.2275 21.8554 10.2237 21.8479 10.22C21.8179 10.205 21.7871 10.1916 21.7555 10.1798C21.7499 10.1777 21.7442 10.1757 21.7386 10.1737C21.6966 10.1587 21.6535 10.1465 21.6091 10.1371C21.6058 10.1364 21.6025 10.1357 21.5991 10.135C21.5352 10.1222 21.4691 10.1155 21.4014 10.1155H16.9236C16.5769 10.1155 16.2713 10.2911 16.0908 10.5584C16.0863 10.565 16.0819 10.5718 16.0775 10.5786C16.0383 10.6397 16.0055 10.7054 15.9802 10.7745C15.9773 10.7822 15.9747 10.79 15.972 10.7978C15.9378 10.8989 15.9192 11.0073 15.9192 11.1198V16.4739C15.9192 17.0286 16.3689 17.4782 16.9236 17.4782H18.3432C18.5775 17.4782 18.7773 17.5963 18.8963 17.7707L18.6351 18.6796L18.422 19.4212C18.4204 19.4267 18.4189 19.4324 18.4173 19.4379C18.4168 19.4395 18.4165 19.4413 18.4161 19.4429C18.4151 19.4468 18.414 19.4508 18.413 19.4547C18.4125 19.4567 18.412 19.4586 18.4114 19.4606C18.4106 19.4644 18.4097 19.4681 18.4088 19.4719C18.4084 19.4737 18.4079 19.4755 18.4076 19.4773C18.4066 19.4817 18.4055 19.4862 18.4047 19.4906C18.4044 19.4916 18.4042 19.4926 18.404 19.4937C18.3885 19.5677 18.3816 19.6412 18.3825 19.7134V20.5637C18.3753 21.1052 18.8124 21.5793 19.3873 21.5793H19.3875C19.7411 21.5793 20.0686 21.3934 20.2499 21.0898L22.2638 17.7161C22.3566 17.5604 22.4057 17.3826 22.4057 17.2013V16.3258C22.4057 16.3255 22.4057 16.3253 22.4057 16.3249V11.12H22.406Z" fill="#382B73"/>
<path d="M10.0573 19.7474C10.0501 20.2889 10.4872 20.763 11.0621 20.763H11.0623C11.4159 20.763 11.7434 20.5771 11.9247 20.2735L13.9385 16.8998C14.0314 16.7442 14.0805 16.5663 14.0805 16.385V10.3036C14.0805 9.74888 13.6309 9.29926 13.0762 9.29926H8.59855C8.04386 9.29926 7.59424 9.74888 7.59424 10.3036V15.6576C7.59424 16.2123 8.04386 16.6619 8.59855 16.6619H10.0181C10.2524 16.6619 10.4523 16.7801 10.5713 16.9544L10.0969 18.6049C10.0694 18.7006 10.0569 18.7962 10.0574 18.8897V19.7474H10.0573Z" fill="#E7AD27"/>
<path d="M7.59424 10.3036V14.7813C7.59424 15.336 8.04386 15.7857 8.59855 15.7857H10.0181C10.4633 15.7857 10.7847 16.2122 10.6616 16.6402L10.0969 18.605C9.9124 19.247 10.3943 19.8867 11.0622 19.8867H11.0624C11.416 19.8867 11.7435 19.7008 11.9248 19.3972L13.9387 16.0235C14.0316 15.8679 14.0806 15.69 14.0806 15.5088V10.3036C14.0806 9.74888 13.631 9.29926 13.0763 9.29926H8.59855C8.04386 9.29926 7.59424 9.74888 7.59424 10.3036Z" fill="#FEDE3A"/>
<path d="M18.3826 19.7474C18.3754 20.2889 18.8125 20.763 19.3874 20.763H19.3876C19.7412 20.763 20.0687 20.5771 20.25 20.2735L22.2639 16.8998C22.3568 16.7442 22.4058 16.5663 22.4058 16.385V10.3036C22.4058 9.74888 21.9562 9.29926 21.4015 9.29926H16.9237C16.3691 9.29926 15.9194 9.74888 15.9194 10.3036V15.6576C15.9194 16.2123 16.3691 16.6619 16.9237 16.6619H18.3433C18.5776 16.6619 18.7775 16.7801 18.8965 16.9544L18.4221 18.6049C18.3946 18.7006 18.3821 18.7962 18.3826 18.8897V19.7474Z" fill="#A72973"/>
<path d="M15.9194 10.3036V14.7813C15.9194 15.336 16.3691 15.7857 16.9237 15.7857H18.3433C18.7885 15.7857 19.1099 16.2122 18.9868 16.6402L18.4221 18.605C18.2376 19.247 18.7195 19.8867 19.3874 19.8867H19.3876C19.7412 19.8867 20.0687 19.7008 20.25 19.3972L22.2639 16.0235C22.3568 15.8679 22.4058 15.69 22.4058 15.5088V10.3036C22.4058 9.74888 21.9562 9.29926 21.4015 9.29926H16.9237C16.3691 9.29926 15.9194 9.74888 15.9194 10.3036Z" fill="#EF5A9D"/>
</svg>
